0
SECTION
2
HEADER
0
ENDSEC
0
SECTION
2
BLOCKS
0
BLOCK
2
Cube
8
Meshes
70
64
10
0.0
20
0.0
30
0.0
3
Cube
0
POLYLINE
66
1
8
Meshes
62
254
70
64
71
8
72
6
0
VERTEX
8
Meshes
10
1.000000
20
4.729100
30
-1.000000
70
192
0
VERTEX
8
Meshes
10
1.000000
20
-1.000000
30
-1.000000
70
192
0
VERTEX
8
Meshes
10
-1.000000
20
-1.000000
30
-1.000000
70
192
0
VERTEX
8
Meshes
10
-1.000000
20
4.729100
30
-1.000000
70
192
0
VERTEX
8
Meshes
10
1.000000
20
4.729099
30
1.000000
70
192
0
VERTEX
8
Meshes
10
0.999999
20
-1.000001
30
1.000000
70
192
0
VERTEX
8
Meshes
10
-1.000000
20
-1.000000
30
1.000000
70
192
0
VERTEX
8
Meshes
10
-1.000000
20
4.729100
30
1.000000
70
192
0
VERTEX
8
Meshes
62
254
10
0.0
20
0.0
30
0.0
70
128
71
1
72
2
73
3
74
4
0
VERTEX
8
Meshes
62
254
10
0.0
20
0.0
30
0.0
70
128
71
5
72
8
73
7
74
6
0
VERTEX
8
Meshes
62
254
10
0.0
20
0.0
30
0.0
70
128
71
1
72
5
73
6
74
2
0
VERTEX
8
Meshes
62
254
10
0.0
20
0.0
30
0.0
70
128
71
2
72
6
73
7
74
3
0
VERTEX
8
Meshes
62
254
10
0.0
20
0.0
30
0.0
70
128
71
3
72
7
73
8
74
4
0
VERTEX
8
Meshes
62
254
10
0.0
20
0.0
30
0.0
70
128
71
5
72
1
73
4
74
8
0
SEQEND
0
ENDBLK
0
BLOCK
2
Cube_001
8
Meshes
70
64
10
0.0
20
0.0
30
0.0
3
Cube_001
0
POLYLINE
66
1
8
Meshes
62
254
70
64
71
8
72
6
0
VERTEX
8
Meshes
10
1.000000
20
1.000000
30
-1.000000
70
192
0
VERTEX
8
Meshes
10
1.000000
20
-5.231094
30
-1.000000
70
192
0
VERTEX
8
Meshes
10
-1.000000
20
-5.231094
30
-1.000000
70
192
0
VERTEX
8
Meshes
10
-1.000000
20
1.000000
30
-1.000000
70
192
0
VERTEX
8
Meshes
10
1.000000
20
0.999999
30
1.000000
70
192
0
VERTEX
8
Meshes
10
0.999999
20
-5.231095
30
1.000000
70
192
0
VERTEX
8
Meshes
10
-1.000000
20
-5.231094
30
1.000000
70
192
0
VERTEX
8
Meshes
10
-1.000000
20
1.000000
30
1.000000
70
192
0
VERTEX
8
Meshes
62
254
10
0.0
20
0.0
30
0.0
70
128
71
1
72
2
73
3
74
4
0
VERTEX
8
Meshes
62
254
10
0.0
20
0.0
30
0.0
70
128
71
5
72
8
73
7
74
6
0
VERTEX
8
Meshes
62
254
10
0.0
20
0.0
30
0.0
70
128
71
1
72
5
73
6
74
2
0
VERTEX
8
Meshes
62
254
10
0.0
20
0.0
30
0.0
70
128
71
2
72
6
73
7
74
3
0
VERTEX
8
Meshes
62
254
10
0.0
20
0.0
30
0.0
70
128
71
3
72
7
73
8
74
4
0
VERTEX
8
Meshes
62
254
10
0.0
20
0.0
30
0.0
70
128
71
5
72
1
73
4
74
8
0
SEQEND
0
ENDBLK
0
BLOCK
2
Cube_002
8
Meshes
70
64
10
0.0
20
0.0
30
0.0
3
Cube_002
0
POLYLINE
66
1
8
Meshes
62
254
70
64
71
8
72
6
0
VERTEX
8
Meshes
10
1.000000
20
1.000000
30
-1.000000
70
192
0
VERTEX
8
Meshes
10
1.000000
20
-5.231094
30
-1.000000
70
192
0
VERTEX
8
Meshes
10
-1.000000
20
-5.231094
30
-1.000000
70
192
0
VERTEX
8
Meshes
10
-1.000000
20
1.000000
30
-1.000000
70
192
0
VERTEX
8
Meshes
10
1.000000
20
0.999999
30
1.000000
70
192
0
VERTEX
8
Meshes
10
0.999999
20
-5.231095
30
1.000000
70
192
0
VERTEX
8
Meshes
10
-1.000000
20
-5.231094
30
1.000000
70
192
0
VERTEX
8
Meshes
10
-1.000000
20
1.000000
30
1.000000
70
192
0
VERTEX
8
Meshes
62
254
10
0.0
20
0.0
30
0.0
70
128
71
1
72
2
73
3
74
4
0
VERTEX
8
Meshes
62
254
10
0.0
20
0.0
30
0.0
70
128
71
5
72
8
73
7
74
6
0
VERTEX
8
Meshes
62
254
10
0.0
20
0.0
30
0.0
70
128
71
1
72
5
73
6
74
2
0
VERTEX
8
Meshes
62
254
10
0.0
20
0.0
30
0.0
70
128
71
2
72
6
73
7
74
3
0
VERTEX
8
Meshes
62
254
10
0.0
20
0.0
30
0.0
70
128
71
3
72
7
73
8
74
4
0
VERTEX
8
Meshes
62
254
10
0.0
20
0.0
30
0.0
70
128
71
5
72
1
73
4
74
8
0
SEQEND
0
ENDBLK
0
ENDSEC
0
SECTION
2
ENTITIES
0
INSERT
8
1
2
Cube_002
10
1.972120
20
-1.039845
30
0.000000
41
1.000000
42
1.000000
43
1.000000
50
0.000000
0
INSERT
8
1
2
Cube_001
10
-2.043834
20
-1.075702
30
0.000000
41
1.000000
42
1.000000
43
1.000000
50
0.000000
0
INSERT
8
1
2
Cube
10
0.000000
20
0.000000
30
0.000000
41
1.000000
42
1.000000
43
1.000000
50
0.000000
0
ENDSEC
0
EOF
